<svg width="22" height="22" viewBox="0 0 22 22" fill="none" xmlns="http://www.w3.org/2000/svg">
<path fillRule="evenodd" clipRule="evenodd" d="M11.5975 0.445994C10.9531 0.452064 10.2686 0.45851 9.54194 0.459662V0.456776C1.01859 0.465432 0.210693 0.627012 0.210693 10.9349C0.210693 21.1246 0.503556 21.416 10.6889 21.416C11.2028 21.416 11.708 21.4216 12.2018 21.427C17.075 21.4805 20.8444 21.5218 21.092 16.1026C21.8085 0.349821 20.6442 0.360787 11.5975 0.445994ZM15.9777 4.11541C15.9777 3.26856 16.6644 2.58184 17.5113 2.58184C18.3581 2.58184 19.0449 3.26856 19.0449 4.11541C19.0449 4.96226 18.3581 5.64898 17.5113 5.64898C16.6644 5.64898 15.9777 4.96226 15.9777 4.11541ZM4.12324 10.9407C4.12324 7.31527 7.06197 4.37509 10.6874 4.37509C14.3129 4.37509 17.2502 7.31527 17.2502 10.9407C17.2502 14.5662 14.3129 17.5049 10.6874 17.5049C7.06197 17.5049 4.12324 14.5662 4.12324 10.9407ZM10.6874 6.67905C16.3211 6.67905 16.3283 15.2024 10.6874 15.2024C5.05521 15.2024 5.04655 6.67905 10.6874 6.67905Z" fill="#1DAAA2"/>
</svg>
