<svg width="22" height="21" viewBox="0 0 22 21" fill="none" xmlns="http://www.w3.org/2000/svg">
<path d="M21.6209 20.5695C20.3338 20.5389 19.0773 20.5389 17.7902 20.5695C17.5144 20.5695 17.4531 20.5082 17.4531 20.2324C17.4531 17.9646 17.4531 15.6662 17.4531 13.3985C17.4531 12.8775 17.4225 12.3566 17.2693 11.8662C16.8096 10.2727 14.9709 9.69041 13.6531 10.763C12.9483 11.3146 12.6725 12.0807 12.6725 13.0001C12.6725 15.1453 12.6725 17.2905 12.6725 19.4356C12.6725 19.7114 12.6418 19.9872 12.6725 20.2937C12.7031 20.5389 12.5805 20.6001 12.366 20.5695C11.0483 20.5695 9.76116 20.5695 8.44342 20.5695C8.19825 20.5695 8.13696 20.5082 8.13696 20.263C8.16761 18.3324 8.16761 16.4017 8.16761 14.4404C8.16761 12.0501 8.16761 9.65977 8.13696 7.30008C8.13696 7.02427 8.19825 6.96298 8.44342 6.96298C9.76116 6.96298 11.0483 6.96298 12.366 6.96298C12.6112 6.96298 12.6725 7.02427 12.6725 7.26943C12.6725 7.75976 12.6725 8.25008 12.6725 8.83234C12.7644 8.74041 12.7951 8.70976 12.8257 8.67912C14.0209 6.93233 15.7064 6.44201 17.6983 6.74846C19.9967 7.11621 21.4677 8.70976 21.8354 11.1614C21.9274 11.7436 21.958 12.3259 21.958 12.9082C21.958 15.3598 21.958 17.7808 21.958 20.2324C21.958 20.4776 21.8967 20.5695 21.6209 20.5695Z" fill="#1DAAA2"/>
<path d="M5.6837 13.7669C5.6837 15.9121 5.6837 18.0572 5.6837 20.2024C5.6837 20.4782 5.6224 20.5701 5.3466 20.5701C4.05949 20.5395 2.77239 20.5701 1.48529 20.5701C1.24012 20.5701 1.17883 20.5089 1.17883 20.2637C1.17883 15.9427 1.17883 11.5911 1.17883 7.27008C1.17883 7.05556 1.24012 6.96362 1.48529 6.96362C2.80304 6.96362 4.12078 6.96362 5.43853 6.96362C5.71434 6.96362 5.74499 7.05556 5.74499 7.30072C5.6837 9.44589 5.6837 11.5911 5.6837 13.7669Z" fill="#1DAAA2"/>
<path d="M5.89825 3.40814C5.5918 4.63395 4.33534 5.33879 2.89501 5.09363C1.36275 4.84847 0.504678 3.34684 1.05629 1.87587C1.42404 0.95651 2.31275 0.404894 3.44663 0.43554C5.16277 0.404894 6.29664 1.78393 5.89825 3.40814Z" fill="#1DAAA2"/>
</svg>
