<svg width="13" height="22" viewBox="0 0 13 22" fill="none" xmlns="http://www.w3.org/2000/svg">
<path d="M0.601125 0.658502C0.296485 0.963235 0.125347 1.37649 0.125347 1.80738C0.125347 2.23827 0.296485 2.65152 0.601125 2.95625L8.64488 11L0.601125 19.0438C0.305119 19.3502 0.141327 19.7607 0.145029 20.1868C0.148732 20.6129 0.319632 21.0204 0.62092 21.3217C0.922208 21.623 1.32978 21.7939 1.75585 21.7976C2.18192 21.8013 2.5924 21.6375 2.89887 21.3415L12.0915 12.1489C12.3961 11.8441 12.5673 11.4309 12.5673 11C12.5673 10.5691 12.3961 10.1559 12.0915 9.85113L2.89887 0.658502C2.59414 0.353862 2.18089 0.182724 1.75 0.182724C1.31911 0.182724 0.905858 0.353862 0.601125 0.658502Z" fill="white"/>
</svg>
