<svg width="21" height="17" viewBox="0 0 21 17" fill="none" xmlns="http://www.w3.org/2000/svg">
<path d="M18.2757 4.63587C18.2757 4.8206 18.2757 5.00533 18.2757 5.16367C18.2757 10.6264 14.1061 16.9337 6.50576 16.9337C4.15705 16.9337 1.99306 16.2475 0.145752 15.0863C0.462433 15.1127 0.805504 15.1391 1.12219 15.1391C3.04866 15.1391 4.84319 14.4794 6.26825 13.371C4.44734 13.3446 2.91671 12.1307 2.4153 10.4945C2.6792 10.5473 2.91671 10.5736 3.207 10.5736C3.57646 10.5736 3.94592 10.5209 4.289 10.4153C2.38891 10.0458 0.963845 8.38326 0.963845 6.37762C0.963845 6.35123 0.963845 6.35123 0.963845 6.32484C1.51804 6.64152 2.1514 6.82625 2.83754 6.85264C1.72916 6.11372 0.990235 4.84699 0.990235 3.39554C0.990235 2.63023 1.20136 1.91769 1.54443 1.31072C3.57646 3.81778 6.63771 5.45397 10.0684 5.6387C9.98925 5.3484 9.96286 5.00533 9.96286 4.68865C9.96286 2.39272 11.8102 0.54541 14.1061 0.54541C15.2937 0.54541 16.3757 1.04682 17.1146 1.83852C18.0646 1.65379 18.9355 1.31072 19.7536 0.835701C19.4369 1.81213 18.7772 2.60384 17.9327 3.13164C18.7772 3.02608 19.5689 2.81496 20.3078 2.47189C19.78 3.31637 19.0938 4.05529 18.2757 4.63587Z" fill="#1DAAA2"/>
</svg>
